# Blender 4.2.3 LTS
# www.blender.org
mtllib untitled.mtl
o Material39.001
o Material39.059
v 1.520134 1.640516 -4.232536
v 1.520134 1.640516 -4.252533
v 1.520134 3.270516 -4.232536
v 1.520134 3.270516 -4.252533
vn -1.0000 -0.0000 -0.0000
s 0
usemtl Material39.001
f 2//1 1//1 3//1
f 2//1 3//1 4//1
o Material39.061
v 2.070038 3.270516 -4.232536
v 1.520134 3.270516 -4.252533
v 1.520134 3.270516 -4.232536
v 2.070038 3.270516 -4.252533
vn -0.0000 1.0000 -0.0000
s 0
usemtl Material39.001
f 6//2 5//2 8//2
f 6//2 7//2 5//2
o Material39.071
v -3.296730 0.469248 -0.743342
v -3.780136 0.469248 -0.743342
v -3.296730 2.099250 -0.743343
v -3.780136 2.099250 -0.743343
v -0.665024 0.134249 -0.717326
v -0.665024 0.134249 -0.729335
v -0.021021 0.134249 -0.717326
v -0.021021 0.134249 -0.729335
v -0.665024 0.134249 -0.717326
v -0.665024 2.006248 -0.717326
v -0.665024 0.134249 -0.729335
v -0.665024 2.006248 -0.729335
v -0.665024 0.134249 -0.717326
v -0.021021 2.006248 -0.717326
v -0.021021 0.134249 -0.717326
v -0.665024 2.006248 -0.717326
v -0.665024 0.134249 -0.729335
v -0.021021 2.006248 -0.729335
v -0.665024 2.006248 -0.729335
v -0.021021 0.134249 -0.729335
v -0.021021 0.134249 -0.717326
v -0.021021 2.006248 -0.729335
v -0.021021 0.134249 -0.729335
v -0.021021 2.006248 -0.717326
v -0.021021 2.006248 -0.717326
v -0.665024 2.006248 -0.729335
v -0.021021 2.006248 -0.729335
v -0.665024 2.006248 -0.717326
v 2.948278 0.134249 -0.717326
v 3.582380 0.134249 -0.729335
v 2.948278 0.134249 -0.729335
v 3.582380 0.134249 -0.717326
v 2.948278 0.134249 -0.717326
v 2.948278 2.006248 -0.717326
v 2.948278 0.134249 -0.729335
v 2.948278 2.006248 -0.729335
v 2.948278 0.134249 -0.717326
v 3.582380 2.006248 -0.717326
v 3.582380 0.134249 -0.717326
v 2.948278 2.006248 -0.717326
v 2.948278 0.134249 -0.729335
v 3.582380 2.006248 -0.729335
v 2.948278 2.006248 -0.729335
v 3.582380 0.134249 -0.729335
v 3.582380 0.134249 -0.717326
v 3.582380 2.006248 -0.729335
v 3.582380 0.134249 -0.729335
v 3.582380 2.006248 -0.717326
v 3.582380 2.006248 -0.717326
v 2.948278 2.006248 -0.729335
v 3.582380 2.006248 -0.729335
v 2.948278 2.006248 -0.717326
v 5.323278 0.131251 -0.816325
v 3.767279 0.131251 -0.828334
v 3.767279 0.131251 -0.816325
v 5.323278 0.131251 -0.828334
v 5.323278 0.131251 -0.816325
v 5.323278 2.037246 -0.816325
v 5.323278 0.131251 -0.828334
v 5.323278 2.037246 -0.828334
v 5.323278 0.131251 -0.816325
v 3.767279 2.037246 -0.816325
v 5.323278 2.037246 -0.816325
v 3.767279 0.131251 -0.816325
v 5.323278 0.131251 -0.828334
v 3.767279 2.037246 -0.828334
v 3.767279 0.131251 -0.828334
v 5.323278 2.037246 -0.828334
v 3.767279 0.131251 -0.816325
v 3.767279 2.037246 -0.828334
v 3.767279 2.037246 -0.816325
v 3.767279 0.131251 -0.828334
v 3.767279 2.037246 -0.816325
v 5.323278 2.037246 -0.828334
v 5.323278 2.037246 -0.816325
v 3.767279 2.037246 -0.828334
v -3.296722 0.469248 -0.763331
v -3.780128 0.469248 -0.763331
v -3.296722 0.469248 -0.743327
v -3.780128 0.469248 -0.743327
v -3.296722 0.469248 -0.763331
v -3.296722 2.099250 -0.763332
v -3.780128 0.469248 -0.763331
v -3.780128 2.099250 -0.763332
v -3.296722 0.469248 -0.763331
v -3.296722 2.099250 -0.743327
v -3.296722 2.099250 -0.763332
v -3.296722 0.469248 -0.743327
v -3.780128 0.469248 -0.743327
v -3.780128 2.099250 -0.763332
v -3.780128 0.469248 -0.763331
v -3.780128 2.099250 -0.743327
v -3.780128 2.099250 -0.763332
v -3.296722 2.099250 -0.763332
v -3.780128 2.099250 -0.743327
v -3.296722 2.099250 -0.743327
v -2.688423 0.444246 -0.788341
v -3.171722 0.444246 -0.768336
v -2.688423 0.444246 -0.768336
v -3.171722 0.444246 -0.788341
v -2.688423 0.444246 -0.788341
v -2.688423 2.124244 -0.788341
v -2.688423 0.444246 -0.768336
v -2.688423 2.124244 -0.768337
v -2.688423 0.444246 -0.788341
v -3.171722 2.124244 -0.788341
v -3.171722 0.444246 -0.788341
v -2.688423 2.124244 -0.788341
v -2.688423 0.444246 -0.768336
v -3.171722 2.124244 -0.768337
v -2.688423 2.124244 -0.768337
v -3.171722 0.444246 -0.768336
v -3.171722 0.444246 -0.788341
v -3.171722 2.124244 -0.768337
v -3.171722 0.444246 -0.768336
v -3.171722 2.124244 -0.788341
v -3.171722 2.124244 -0.788341
v -2.688423 2.124244 -0.768337
v -3.171722 2.124244 -0.768337
v -2.688423 2.124244 -0.788341
v -3.905136 0.444246 -0.788341
v -4.388428 0.444246 -0.768336
v -3.905136 0.444246 -0.768336
v -4.388428 0.444246 -0.788341
v -3.905136 0.444246 -0.788341
v -3.905136 2.124244 -0.788341
v -3.905136 0.444246 -0.768336
v -3.905136 2.124244 -0.768337
v -3.905136 0.444246 -0.788341
v -4.388428 2.124244 -0.788341
v -4.388428 0.444246 -0.788341
v -3.905136 2.124244 -0.788341
v -3.905136 0.444246 -0.768336
v -4.388428 2.124244 -0.768337
v -3.905136 2.124244 -0.768337
v -4.388428 0.444246 -0.768336
v -4.388428 0.444246 -0.788341
v -4.388428 2.124244 -0.768337
v -4.388428 0.444246 -0.768336
v -4.388428 2.124244 -0.788341
v -4.388428 2.124244 -0.788341
v -3.905136 2.124244 -0.768337
v -4.388428 2.124244 -0.768337
v -3.905136 2.124244 -0.788341
vn -0.0000 -0.0000 1.0000
vn -0.0000 -1.0000 -0.0000
vn -1.0000 -0.0000 -0.0000
vn -0.0000 -0.0000 -1.0000
vn 1.0000 -0.0000 -0.0000
vn -0.0000 1.0000 -0.0000
s 0
usemtl Material39.001
f 10//3 9//3 11//3
f 10//3 11//3 12//3
f 13//4 14//4 16//4
f 13//4 16//4 15//4
f 18//5 19//5 17//5
f 18//5 20//5 19//5
f 21//3 22//3 24//3
f 21//3 23//3 22//3
f 25//6 26//6 28//6
f 25//6 27//6 26//6
f 29//7 30//7 32//7
f 29//7 31//7 30//7
f 33//8 34//8 36//8
f 33//8 35//8 34//8
f 37//4 38//4 40//4
f 37//4 39//4 38//4
f 42//5 43//5 41//5
f 42//5 44//5 43//5
f 45//3 46//3 48//3
f 45//3 47//3 46//3
f 49//6 50//6 52//6
f 49//6 51//6 50//6
f 53//7 54//7 56//7
f 53//7 55//7 54//7
f 57//8 58//8 60//8
f 57//8 59//8 58//8
f 61//4 62//4 64//4
f 61//4 63//4 62//4
f 66//7 65//7 67//7
f 66//7 67//7 68//7
f 69//3 70//3 72//3
f 69//3 71//3 70//3
f 73//6 74//6 76//6
f 73//6 75//6 74//6
f 77//5 78//5 80//5
f 77//5 79//5 78//5
f 81//8 82//8 84//8
f 81//8 83//8 82//8
f 86//4 85//4 87//4
f 86//4 87//4 88//4
f 90//6 89//6 91//6
f 90//6 91//6 92//6
f 93//7 94//7 96//7
f 93//7 95//7 94//7
f 98//5 97//5 100//5
f 98//5 99//5 97//5
f 102//8 101//8 103//8
f 102//8 103//8 104//8
f 105//4 106//4 108//4
f 105//4 107//4 106//4
f 110//7 111//7 109//7
f 110//7 112//7 111//7
f 113//6 114//6 116//6
f 113//6 115//6 114//6
f 117//3 118//3 120//3
f 117//3 119//3 118//3
f 121//5 122//5 124//5
f 121//5 123//5 122//5
f 125//8 126//8 128//8
f 125//8 127//8 126//8
f 129//4 130//4 132//4
f 129//4 131//4 130//4
f 134//7 135//7 133//7
f 134//7 136//7 135//7
f 137//6 138//6 140//6
f 137//6 139//6 138//6
f 141//3 142//3 144//3
f 141//3 143//3 142//3
f 145//5 146//5 148//5
f 145//5 147//5 146//5
f 149//8 150//8 152//8
f 149//8 151//8 150//8
