# Blender 3.6.18
# www.blender.org
mtllib tree.mtl
o Plane.001
v -0.000000 0.102330 2.737670
v -0.000000 0.102330 -2.737670
v 0.000000 9.097670 2.737670
v 0.000000 9.097670 -2.737670
v -2.737670 0.102330 -0.000000
v 2.737670 0.102330 -0.000000
v -2.737670 9.097670 0.000000
v 2.737670 9.097670 0.000000
v -0.000001 0.102330 -2.737670
v 0.000002 0.102330 2.737670
v -0.000002 9.097670 -2.737670
v 0.000001 9.097670 2.737670
v 2.737670 0.102331 -0.000001
v -2.737670 0.102330 0.000001
v 2.737670 9.097670 -0.000001
v -2.737670 9.097670 0.000001
vn 1.0000 -0.0000 -0.0000
vn -0.0000 -0.0000 1.0000
vn -1.0000 -0.0000 -0.0000
vn -0.0000 -0.0000 -1.0000
vt 0.000000 0.000000
vt 1.000000 0.000000
vt 1.000000 1.000000
vt 0.000000 1.000000
s 0
usemtl Material.006
f 1/1/1 2/2/1 4/3/1 3/4/1
f 5/1/2 6/2/2 8/3/2 7/4/2
f 9/1/3 10/2/3 12/3/3 11/4/3
f 13/1/4 14/2/4 16/3/4 15/4/4
