# Blender 4.2.3 LTS
# www.blender.org
mtllib parteSpate.mtl
o Material39
v -2.253723 0.066160 0.025151
v -2.253723 0.066160 0.025151
v -2.253723 0.066160 0.025151
v -2.253723 0.066160 0.005155
v -2.253723 0.066160 0.005155
v -2.253723 0.066160 0.005155
v -1.770424 0.066160 0.005155
v -1.770424 0.066160 0.005155
v -1.770424 0.066160 0.005155
v -1.770424 0.066160 0.025151
v -1.770424 0.066160 0.025151
v -1.770424 0.066160 0.025151
v -1.770424 1.696160 0.025151
v -1.770424 1.696160 0.025151
v -1.770424 1.696160 0.025151
v -2.253723 1.696160 0.025151
v -2.253723 1.696160 0.025151
v -2.253723 1.696160 0.025151
v -2.253723 1.696160 0.005154
v -2.253723 1.696160 0.005154
v -2.253723 1.696160 0.005154
v -1.770424 1.696160 0.005154
v -1.770424 1.696160 0.005154
v -1.770424 1.696160 0.005154
v -2.862122 0.041160 0.050153
v -2.862122 0.041160 0.050153
v -2.862122 0.041160 0.050153
v -2.862122 0.041160 0.030156
v -2.862122 0.041160 0.030156
v -2.862122 0.041160 0.030156
v -2.378723 0.041160 0.050153
v -2.378723 0.041160 0.050153
v -2.378723 0.041160 0.050153
v -2.378723 0.041160 0.030156
v -2.378723 0.041160 0.030156
v -2.378723 0.041160 0.030156
v -2.378723 1.721160 0.050153
v -2.378723 1.721160 0.050153
v -2.378723 1.721160 0.050153
v -2.378723 1.721160 0.030156
v -2.378723 1.721160 0.030156
v -2.378723 1.721160 0.030156
v -2.862122 1.721160 0.050153
v -2.862122 1.721160 0.050153
v -2.862122 1.721160 0.050153
v -2.862122 1.721160 0.030156
v -2.862122 1.721160 0.030156
v -2.862122 1.721160 0.030156
v -1.645424 0.041160 0.050153
v -1.645424 0.041160 0.050153
v -1.645424 0.041160 0.050153
v -1.645424 0.041160 0.030156
v -1.645424 0.041160 0.030156
v -1.645424 0.041160 0.030156
v -1.162026 0.041160 0.050153
v -1.162026 0.041160 0.050153
v -1.162026 0.041160 0.050153
v -1.162026 0.041160 0.030156
v -1.162026 0.041160 0.030156
v -1.162026 0.041160 0.030156
v -1.162026 1.721160 0.050153
v -1.162026 1.721160 0.050153
v -1.162026 1.721160 0.050153
v -1.162026 1.721160 0.030156
v -1.162026 1.721160 0.030156
v -1.162026 1.721160 0.030156
v -1.645424 1.721160 0.050153
v -1.645424 1.721160 0.050153
v -1.645424 1.721160 0.050153
v -1.645424 1.721160 0.030156
v -1.645424 1.721160 0.030156
v -1.645424 1.721160 0.030156
v 2.752876 0.066160 0.025151
v 2.752876 0.066160 0.025151
v 2.752876 0.066160 0.025151
v 2.202972 0.066160 0.025151
v 2.202972 0.066160 0.025151
v 2.202972 0.066160 0.025151
v 2.202972 0.066160 0.005155
v 2.202972 0.066160 0.005155
v 2.202972 0.066160 0.005155
v 2.752876 0.066160 0.005155
v 2.752876 0.066160 0.005155
v 2.752876 0.066160 0.005155
v 2.752876 1.696160 0.025151
v 2.752876 1.696160 0.025151
v 2.752876 1.696160 0.025151
v 2.752876 1.696160 0.005154
v 2.752876 1.696160 0.005154
v 2.752876 1.696160 0.005154
v 2.202972 1.696160 0.025151
v 2.202972 1.696160 0.025151
v 2.202972 1.696160 0.025151
v 2.202972 1.696160 0.005154
v 2.202972 1.696160 0.005154
v 2.202972 1.696160 0.005154
v 4.912971 0.066160 0.025151
v 4.912971 0.066160 0.025151
v 4.912971 0.066160 0.025151
v 4.362877 0.066160 0.025151
v 4.362877 0.066160 0.025151
v 4.362877 0.066160 0.025151
v 4.362877 0.066160 0.005155
v 4.362877 0.066160 0.005155
v 4.362877 0.066160 0.005155
v 4.912971 0.066160 0.005155
v 4.912971 0.066160 0.005155
v 4.912971 0.066160 0.005155
v 4.912971 1.696160 0.025151
v 4.912971 1.696160 0.025151
v 4.912971 1.696160 0.025151
v 4.912971 1.696160 0.005154
v 4.912971 1.696160 0.005154
v 4.912971 1.696160 0.005154
v 4.362877 1.696160 0.025151
v 4.362877 1.696160 0.025151
v 4.362877 1.696160 0.025151
v 4.362877 1.696160 0.005154
v 4.362877 1.696160 0.005154
v 4.362877 1.696160 0.005154
v 0.422973 0.066160 0.025151
v 0.422973 0.066160 0.025151
v 0.422973 0.066160 0.025151
v 0.422973 0.066160 0.005155
v 0.422973 0.066160 0.005155
v 0.422973 0.066160 0.005155
v 0.972878 0.066160 0.005155
v 0.972878 0.066160 0.005155
v 0.972878 0.066160 0.005155
v 0.972878 0.066160 0.025151
v 0.972878 0.066160 0.025151
v 0.972878 0.066160 0.025151
v 0.972878 1.696160 0.025151
v 0.972878 1.696160 0.025151
v 0.972878 1.696160 0.025151
v 0.422973 1.696160 0.025151
v 0.422973 1.696160 0.025151
v 0.422973 1.696160 0.025151
v 0.422973 1.696160 0.005154
v 0.422973 1.696160 0.005154
v 0.422973 1.696160 0.005154
v 0.972878 1.696160 0.005154
v 0.972878 1.696160 0.005154
v 0.972878 1.696160 0.005154
vn -0.0000 -1.0000 -0.0000
vn -0.0000 -0.0000 1.0000
vn -1.0000 -0.0000 -0.0000
vn -0.0000 -0.0000 -1.0000
vn 1.0000 -0.0000 -0.0000
vn -0.0000 1.0000 -0.0000
s 0
usemtl Material39
f 10//1 1//1 4//1
f 10//1 4//1 7//1
f 16//2 2//2 11//2
f 16//2 11//2 13//2
f 3//3 17//3 19//3
f 3//3 19//3 5//3
f 8//4 6//4 20//4
f 8//4 20//4 22//4
f 14//5 12//5 9//5
f 14//5 9//5 23//5
f 18//6 15//6 24//6
f 18//6 24//6 21//6
f 25//1 28//1 34//1
f 25//1 34//1 31//1
f 32//5 35//5 40//5
f 32//5 40//5 37//5
f 38//6 41//6 46//6
f 38//6 46//6 43//6
f 44//3 47//3 29//3
f 44//3 29//3 26//3
f 27//2 33//2 39//2
f 27//2 39//2 45//2
f 30//4 48//4 42//4
f 30//4 42//4 36//4
f 49//1 52//1 58//1
f 49//1 58//1 55//1
f 56//5 59//5 64//5
f 56//5 64//5 61//5
f 62//6 65//6 70//6
f 62//6 70//6 67//6
f 68//3 71//3 53//3
f 68//3 53//3 50//3
f 51//2 57//2 63//2
f 51//2 63//2 69//2
f 54//4 72//4 66//4
f 54//4 66//4 60//4
f 82//1 73//1 76//1
f 82//1 76//1 79//1
f 88//5 85//5 74//5
f 88//5 74//5 83//5
f 77//2 75//2 86//2
f 77//2 86//2 91//2
f 80//3 78//3 92//3
f 80//3 92//3 94//3
f 89//4 84//4 81//4
f 89//4 81//4 95//4
f 96//6 93//6 87//6
f 96//6 87//6 90//6
f 106//1 97//1 100//1
f 106//1 100//1 103//1
f 112//5 109//5 98//5
f 112//5 98//5 107//5
f 101//2 99//2 110//2
f 101//2 110//2 115//2
f 104//3 102//3 116//3
f 104//3 116//3 118//3
f 113//4 108//4 105//4
f 113//4 105//4 119//4
f 120//6 117//6 111//6
f 120//6 111//6 114//6
f 130//1 121//1 124//1
f 130//1 124//1 127//1
f 136//2 122//2 131//2
f 136//2 131//2 133//2
f 123//3 137//3 139//3
f 123//3 139//3 125//3
f 128//4 126//4 140//4
f 128//4 140//4 142//4
f 134//5 132//5 129//5
f 134//5 129//5 143//5
f 138//6 135//6 144//6
f 138//6 144//6 141//6
